<svg xmlns="http://www.w3.org/2000/svg" width="141.967" height="53.1" viewBox="0 0 141.967 53.1"><g transform="translate(-720.77 -448.88)" opacity="0.5"><g transform="translate(720.77 448.88)"><path d="M720.77,450.25v6.7H726.6v34.7h6.672v-34.7h5.8v-6.7Z" transform="translate(-720.77 -449.843)"/><path d="M800.316,450.25v15.432h-5.427V450.25H788.22v41.4h6.669V472.381h5.427v19.265h6.669v-41.4Z" transform="translate(-768.183 -449.843)"/><path d="M875.686,456.849v-6.7h-16.8v41.426h16.8v-6.7H865.562v-12.6h7.4v-6.7h-7.4v-8.734Z" transform="translate(-817.859 -449.773)"/><path d="M982.381,464.7v-6.523a9.044,9.044,0,0,0-2.694-6.568,9.288,9.288,0,0,0-15.866,6.568v23.7a9.282,9.282,0,0,0,18.564,0v-8.345H975.51v8.285a2.4,2.4,0,0,1-.752,1.794,2.479,2.479,0,0,1-1.818.743,2.526,2.526,0,0,1-2.537-2.54V458.062a2.489,2.489,0,0,1,.743-1.818,2.407,2.407,0,0,1,1.794-.752,2.576,2.576,0,0,1,2.567,2.57V464.7Z" transform="translate(-891.619 -448.88)"/><rect width="6.672" height="41.396" transform="translate(93.18 0.407)"/><path d="M1063.73,450.25v6.7h5.831v34.994h6.672V456.949h5.8v-6.7Z" transform="translate(-961.849 -449.843)"/><path d="M1139.826,450.15l-3.565,15.21-3.589-15.21h-7.293l7.533,25.984v15.738h6.672V476.134l7.566-25.984Z" transform="translate(-1005.185 -449.773)"/></g><g transform="translate(744.672 495.825)"><path d="M803.9,609.967h2.2v2.73a4.937,4.937,0,0,1-1.952.368,2.85,2.85,0,0,1-2.172-.8A3.181,3.181,0,0,1,801.23,610a3.408,3.408,0,0,1,.374-1.619,2.6,2.6,0,0,1,1.072-1.09,3.272,3.272,0,0,1,1.6-.383,4.131,4.131,0,0,1,1.756.359l-.166.377a3.778,3.778,0,0,0-1.613-.359,2.47,2.47,0,0,0-1.878.731,2.738,2.738,0,0,0-.692,1.97,2.816,2.816,0,0,0,.659,2.032,2.57,2.57,0,0,0,1.934.68,3.7,3.7,0,0,0,1.4-.235v-2.1H803.9v-.4Z" transform="translate(-801.23 -606.91)"/><path d="M867.948,607.21v3.871a2.152,2.152,0,0,1-.6,1.613,2.3,2.3,0,0,1-1.667.582,2.02,2.02,0,0,1-2.2-2.207v-3.856h.422v3.871a1.668,1.668,0,0,0,1.833,1.824,1.635,1.635,0,0,0,1.794-1.785V607.21h.419Z" transform="translate(-844.988 -607.121)"/><path d="M925.878,611.025h-2.43l-.835,2.112h-.463l2.406-6.007h.267l2.356,6.007h-.469Zm-2.281-.377h2.139l-.814-2.157c-.068-.169-.149-.4-.247-.7a7.12,7.12,0,0,1-.241.713Z" transform="translate(-886.229 -607.065)"/><path d="M984.346,610.588v2.605h-.416V607.21h1.423a2.694,2.694,0,0,1,1.646.41,1.469,1.469,0,0,1,.532,1.239,1.626,1.626,0,0,1-.318,1.016,1.765,1.765,0,0,1-.962.594l1.625,2.724h-.5l-1.542-2.605Zm0-.362h1.141a1.81,1.81,0,0,0,1.173-.339,1.2,1.2,0,0,0,.416-1,1.172,1.172,0,0,0-.41-1,2.232,2.232,0,0,0-1.334-.312h-.989v2.641Z" transform="translate(-929.656 -607.121)"/><path d="M1046.232,610.152a3.055,3.055,0,0,1-.79,2.279,3.194,3.194,0,0,1-2.32.772h-1.432V607.22h1.616a2.625,2.625,0,0,1,2.926,2.932Zm-.454.015a2.291,2.291,0,0,0-2.57-2.581h-1.1v5.246h.989A2.363,2.363,0,0,0,1045.778,610.167Z" transform="translate(-970.258 -607.128)"/><path d="M1103.982,611.44a1.436,1.436,0,0,1-.549,1.185,2.29,2.29,0,0,1-1.462.437,4.592,4.592,0,0,1-1.681-.241V612.4a4.226,4.226,0,0,0,1.649.273,1.844,1.844,0,0,0,1.167-.339,1.069,1.069,0,0,0,.431-.885,1.024,1.024,0,0,0-.142-.561,1.31,1.31,0,0,0-.466-.407,5.908,5.908,0,0,0-.951-.4,3.247,3.247,0,0,1-1.266-.68,1.458,1.458,0,0,1,.175-2.071,2.091,2.091,0,0,1,1.352-.425,3.988,3.988,0,0,1,1.583.318l-.151.359a3.684,3.684,0,0,0-1.423-.312,1.661,1.661,0,0,0-1.055.306,1.006,1.006,0,0,0-.392.835.968.968,0,0,0,.517.927,5.29,5.29,0,0,0,.942.407,5.04,5.04,0,0,1,1.052.469,1.5,1.5,0,0,1,.514.517A1.443,1.443,0,0,1,1103.982,611.44Z" transform="translate(-1011.45 -606.91)"/></g><rect width="128.926" height="0.297" transform="translate(726.185 493.327)"/></g></svg>