<svg xmlns="http://www.w3.org/2000/svg" width="180" height="67.326" viewBox="0 0 180 67.326"><g transform="translate(-720.77 -448.88)"><g transform="translate(720.77 448.88)"><path d="M720.77,450.25v8.493h7.39v43.992h8.459V458.743h7.356V450.25Z" transform="translate(-720.77 -449.734)" fill="#af3a3a"/><path d="M803.557,450.25v19.567h-6.881V450.25H788.22v52.486h8.456V478.31h6.881v24.426h8.456V450.25Z" transform="translate(-762.815 -449.734)" fill="#af3a3a"/><path d="M880.186,458.643V450.15h-21.3v52.524h21.3V494.18H867.349V478.21h9.379v-8.493h-9.379V458.643Z" transform="translate(-806.867 -449.672)" fill="#af3a3a"/><path d="M987.353,468.94v-8.271a11.467,11.467,0,0,0-3.416-8.328,11.776,11.776,0,0,0-20.117,8.328v30.053a11.768,11.768,0,0,0,23.537,0v-10.58h-8.716v10.5a3.047,3.047,0,0,1-.953,2.275,3.143,3.143,0,0,1-2.305.942,3.2,3.2,0,0,1-3.217-3.22V460.522a3.155,3.155,0,0,1,.942-2.305,3.052,3.052,0,0,1,2.275-.953,3.266,3.266,0,0,1,3.254,3.258v8.418Z" transform="translate(-872.276 -448.88)" fill="#af3a3a"/><rect width="8.46" height="52.486" transform="translate(118.143 0.516)" fill="#af3a3a"/><path d="M1063.73,450.25v8.493h7.394v44.369h8.459V458.743h7.356V450.25Z" transform="translate(-934.555 -449.734)" fill="#af3a3a"/><path d="M1143.7,450.15l-4.52,19.284-4.55-19.284h-9.247l9.552,32.945V503.05h8.459V483.1l9.593-32.945Z" transform="translate(-972.985 -449.672)" fill="#af3a3a"/></g><g transform="translate(751.075 508.402)"><path d="M804.62,610.786h2.795v3.461a6.26,6.26,0,0,1-2.475.467,3.614,3.614,0,0,1-2.753-1.013,4.033,4.033,0,0,1-.957-2.87,4.321,4.321,0,0,1,.475-2.053,3.3,3.3,0,0,1,1.36-1.382,4.149,4.149,0,0,1,2.03-.486,5.239,5.239,0,0,1,2.226.456l-.211.478a4.79,4.79,0,0,0-2.045-.456,3.132,3.132,0,0,0-2.38.927,3.472,3.472,0,0,0-.878,2.5,3.57,3.57,0,0,0,.836,2.576,3.258,3.258,0,0,0,2.452.862,4.693,4.693,0,0,0,1.778-.3v-2.667h-2.256v-.5Z" transform="translate(-801.23 -606.91)" fill="#af3a3a"/><path d="M869.145,607.21v4.908a2.729,2.729,0,0,1-.757,2.045,2.91,2.91,0,0,1-2.113.738,2.561,2.561,0,0,1-2.795-2.8v-4.889h.535v4.908a2.114,2.114,0,0,0,2.324,2.313,2.073,2.073,0,0,0,2.275-2.264v-4.96h.531Z" transform="translate(-840.034 -607.097)" fill="#af3a3a"/><path d="M926.877,612.068H923.8l-1.058,2.678h-.588l3.051-7.616h.339l2.987,7.616h-.6Zm-2.893-.478H926.7l-1.032-2.734c-.087-.215-.188-.512-.313-.893a9.034,9.034,0,0,1-.305.9Z" transform="translate(-876.606 -607.047)" fill="#af3a3a"/><path d="M984.457,611.492v3.3h-.527V607.21h1.8a3.416,3.416,0,0,1,2.087.52,1.862,1.862,0,0,1,.674,1.571,2.061,2.061,0,0,1-.4,1.288,2.238,2.238,0,0,1-1.22.753l2.06,3.454H988.3l-1.955-3.3Zm0-.46H985.9a2.3,2.3,0,0,0,1.488-.429,1.526,1.526,0,0,0,.527-1.262,1.486,1.486,0,0,0-.52-1.262,2.83,2.83,0,0,0-1.691-.4h-1.254v3.348Z" transform="translate(-915.117 -607.097)" fill="#af3a3a"/><path d="M1047.449,610.938a3.873,3.873,0,0,1-1,2.889,4.049,4.049,0,0,1-2.942.979h-1.815V607.22h2.049a3.328,3.328,0,0,1,3.71,3.718Zm-.576.019a2.9,2.9,0,0,0-3.258-3.273h-1.4v6.652h1.254Q1046.873,614.335,1046.873,610.956Z" transform="translate(-951.121 -607.103)" fill="#af3a3a"/><path d="M1104.972,612.654a1.821,1.821,0,0,1-.7,1.5,2.9,2.9,0,0,1-1.853.554,5.822,5.822,0,0,1-2.132-.305v-.531a5.36,5.36,0,0,0,2.09.346,2.338,2.338,0,0,0,1.48-.429,1.355,1.355,0,0,0,.546-1.122,1.3,1.3,0,0,0-.181-.712,1.66,1.66,0,0,0-.591-.516,7.487,7.487,0,0,0-1.205-.5,4.114,4.114,0,0,1-1.6-.863,1.849,1.849,0,0,1,.222-2.625,2.651,2.651,0,0,1,1.714-.539,5.056,5.056,0,0,1,2.007.4l-.192.456a4.67,4.67,0,0,0-1.8-.4,2.106,2.106,0,0,0-1.337.388,1.275,1.275,0,0,0-.5,1.058,1.227,1.227,0,0,0,.655,1.175,6.713,6.713,0,0,0,1.194.516,6.394,6.394,0,0,1,1.333.6,1.9,1.9,0,0,1,.652.655A1.829,1.829,0,0,1,1104.972,612.654Z" transform="translate(-987.65 -606.91)" fill="#af3a3a"/></g><rect width="163.465" height="0.377" transform="translate(727.636 505.234)" fill="#af3a3a"/></g></svg>