<svg xmlns="http://www.w3.org/2000/svg" width="82" height="16.538" viewBox="0 0 82 16.538"><g transform="translate(0 16.538) rotate(-90)"><path d="M1.181,0A1.181,1.181,0,0,0,0,1.181V80.819a1.181,1.181,0,0,0,2.361,0V1.212A1.181,1.181,0,0,0,1.181,0Z" transform="translate(7.088 0)"/><path d="M8.269,0a1.181,1.181,0,0,0-.787.3L.4,6.5A1.185,1.185,0,0,0,1.972,8.273l7.084-6.2A1.173,1.173,0,0,0,9.174.409,1.2,1.2,0,0,0,8.269,0Z" transform="translate(0 0)"/><path d="M1.191,0A1.181,1.181,0,0,0,.4,2.07l7.084,6.2A1.185,1.185,0,0,0,9.063,6.5L1.979.3A1.157,1.157,0,0,0,1.191,0Z" transform="translate(7.078 0)"/></g></svg>