<svg xmlns="http://www.w3.org/2000/svg" width="82" height="16.538" viewBox="0 0 82 16.538"><g transform="translate(349.76 534.683) rotate(-90)"><path d="M45.011,98.7a1.181,1.181,0,0,1-1.181-1.181V17.881a1.181,1.181,0,0,1,2.361,0V97.488A1.181,1.181,0,0,1,45.011,98.7Z" transform="translate(481.403 -366.46)"/><path d="M43.094,87.682a1.181,1.181,0,0,1-.787-.3l-7.084-6.2A1.185,1.185,0,0,1,36.8,79.409l7.084,6.2A1.173,1.173,0,0,1,44,87.273,1.2,1.2,0,0,1,43.094,87.682Z" transform="translate(483.32 -355.442)"/><path d="M45.008,87.682a1.181,1.181,0,0,1-.787-2.07l7.084-6.2a1.185,1.185,0,0,1,1.574,1.771l-7.084,6.2A1.157,1.157,0,0,1,45.008,87.682Z" transform="translate(481.406 -355.442)"/></g></svg>