<svg xmlns="http://www.w3.org/2000/svg" width="14.405" height="12.99" viewBox="0 0 14.405 12.99"><g transform="translate(0 12.99) rotate(-90)" opacity="0.5"><path d="M.927,0A.927.927,0,0,0,0,.927v12.55a.927.927,0,0,0,1.855,0V.952A.927.927,0,0,0,.927,0Z" transform="translate(5.567 0)"/><path d="M6.495,0a.927.927,0,0,0-.618.235L.312,5.107A.931.931,0,0,0,1.549,6.5L7.113,1.626a.921.921,0,0,0,.093-1.3A.94.94,0,0,0,6.495,0Z" transform="translate(0 0)"/><path d="M.936,0A.927.927,0,0,0,.318,1.626L5.882,6.5A.931.931,0,0,0,7.118,5.107L1.554.235A.909.909,0,0,0,.936,0Z" transform="translate(5.559 0)"/></g></svg>
