<svg xmlns="http://www.w3.org/2000/svg" width="14.405" height="12.99" viewBox="0 0 14.405 12.99"><g transform="translate(299.76 531.134) rotate(-90)"><path d="M44.757,81.105a.927.927,0,0,1-.927-.927V67.627a.927.927,0,0,1,1.855,0V80.153a.927.927,0,0,1-.927.952Z" transform="translate(479.882 -366.46)" fill="#af3939"/><path d="M41.32,85.843a.927.927,0,0,1-.618-.235l-5.564-4.872a.931.931,0,1,1,1.236-1.391l5.564,4.872a.921.921,0,0,1,.093,1.3A.94.94,0,0,1,41.32,85.843Z" transform="translate(483.32 -371.198)" fill="#af3939"/><path d="M44.752,85.843a.927.927,0,0,1-.618-1.626L49.7,79.345a.931.931,0,0,1,1.236,1.391L45.37,85.608A.909.909,0,0,1,44.752,85.843Z" transform="translate(479.887 -371.198)" fill="#af3939"/></g></svg>