<svg xmlns="http://www.w3.org/2000/svg" width="44.423" height="44.787" viewBox="0 0 44.423 44.787"><g transform="translate(-2.083 -0.001)"><path d="M75.427,56.467a3.416,3.416,0,0,0,3.534.947,3.416,3.416,0,0,1,4.354,2.513A3.416,3.416,0,0,0,85.9,62.514a3.416,3.416,0,0,1,2.513,4.354,3.416,3.416,0,0,0,.947,3.534,3.416,3.416,0,0,1,0,5.027,3.416,3.416,0,0,0-.947,3.534A3.416,3.416,0,0,1,85.9,83.315,3.416,3.416,0,0,0,83.315,85.9a3.416,3.416,0,0,1-4.354,2.513,3.416,3.416,0,0,0-3.534.947,3.416,3.416,0,0,1-5.027,0,3.416,3.416,0,0,0-3.534-.947A3.416,3.416,0,0,1,62.513,85.9a3.416,3.416,0,0,0-2.587-2.587,3.416,3.416,0,0,1-2.513-4.354,3.416,3.416,0,0,0-.947-3.534,3.416,3.416,0,0,1,0-5.027,3.416,3.416,0,0,0,.947-3.534,3.416,3.416,0,0,1,2.513-4.354,3.416,3.416,0,0,0,2.587-2.587,3.416,3.416,0,0,1,4.354-2.513,3.416,3.416,0,0,0,3.534-.947A3.416,3.416,0,0,1,75.427,56.467Z" transform="translate(-48.619 -50.52)" fill="#108e10"/><path d="M338.193,90.154a3.416,3.416,0,0,1-.947-3.534,3.416,3.416,0,0,0-2.513-4.354,3.416,3.416,0,0,1-2.587-2.587,3.415,3.415,0,0,0-4.1-2.582,3.414,3.414,0,0,1,2.562,2.582,3.416,3.416,0,0,0,2.587,2.587,3.416,3.416,0,0,1,2.513,4.354,3.416,3.416,0,0,0,.947,3.534,3.416,3.416,0,0,1,0,5.027,3.416,3.416,0,0,0-.947,3.534,3.416,3.416,0,0,1-2.513,4.354,3.416,3.416,0,0,0-2.587,2.587,3.414,3.414,0,0,1-2.562,2.582,3.416,3.416,0,0,0,4.1-2.582,3.416,3.416,0,0,1,2.587-2.587,3.416,3.416,0,0,0,2.513-4.354,3.416,3.416,0,0,1,.947-3.534A3.416,3.416,0,0,0,338.193,90.154Z" transform="translate(-297.45 -70.274)" fill="#0f670f"/><path d="M159.234,185.37l-2.8-2.8a1.376,1.376,0,0,0-1.946,0l-1.827,1.827a1.376,1.376,0,0,0,0,1.946l4.68,4.68a2.483,2.483,0,0,0,3.512,0l9.151-9.151a1.376,1.376,0,0,0,0-1.946l-1.692-1.692a1.376,1.376,0,0,0-1.946,0Z" transform="translate(-137.04 -162.277)" fill="#eaf6ff"/><path d="M221.276,179.927l-1.692-1.692a1.376,1.376,0,0,0-1.946,0l-.416.416a1.373,1.373,0,0,1,1.119.395l.874.881a1.376,1.376,0,0,1,0,1.946l-8.327,8.352a2.482,2.482,0,0,1-2.443.631l.168.168a2.483,2.483,0,0,0,3.512,0l9.151-9.151A1.377,1.377,0,0,0,221.276,179.927Z" transform="translate(-188.309 -162.276)" fill="#c8effe"/><path d="M40.422,28.246a2.772,2.772,0,0,1,.765-2.855,4.072,4.072,0,0,0,0-5.992,2.772,2.772,0,0,1-.765-2.855,4.072,4.072,0,0,0-3-5.19,2.772,2.772,0,0,1-2.09-2.09,4.072,4.072,0,0,0-5.19-3A2.772,2.772,0,0,1,27.291,5.5a4.072,4.072,0,0,0-5.992,0,2.771,2.771,0,0,1-2.855.765,4.072,4.072,0,0,0-5.19,3,2.772,2.772,0,0,1-2.09,2.09,4.072,4.072,0,0,0-3,5.19A2.772,2.772,0,0,1,7.4,19.4a4.072,4.072,0,0,0,0,5.992,2.772,2.772,0,0,1,.765,2.855,4.072,4.072,0,0,0,3,5.19,2.772,2.772,0,0,1,2.09,2.09,4.072,4.072,0,0,0,5.19,3,2.772,2.772,0,0,1,2.855.765,4.072,4.072,0,0,0,5.992,0,2.772,2.772,0,0,1,2.855-.765,4.072,4.072,0,0,0,5.19-3,2.772,2.772,0,0,1,2.09-2.09,4.072,4.072,0,0,0,3-5.19Zm-1.252.392a2.76,2.76,0,0,1-2.031,3.517,4.089,4.089,0,0,0-3.084,3.084,2.76,2.76,0,0,1-3.517,2.031A4.089,4.089,0,0,0,26.325,38.4a2.76,2.76,0,0,1-4.062,0,4.091,4.091,0,0,0-3-1.313,4.043,4.043,0,0,0-1.207.184,2.76,2.76,0,0,1-3.517-2.031,4.089,4.089,0,0,0-3.084-3.084A2.76,2.76,0,0,1,9.42,28.638a4.089,4.089,0,0,0-1.129-4.212,2.76,2.76,0,0,1,0-4.062A4.089,4.089,0,0,0,9.42,16.151a2.76,2.76,0,0,1,2.031-3.517A4.089,4.089,0,0,0,14.534,9.55,2.76,2.76,0,0,1,18.052,7.52a4.089,4.089,0,0,0,4.212-1.129,2.76,2.76,0,0,1,4.062,0A4.089,4.089,0,0,0,30.538,7.52,2.76,2.76,0,0,1,34.055,9.55a4.089,4.089,0,0,0,3.084,3.084,2.76,2.76,0,0,1,2.031,3.517A4.089,4.089,0,0,0,40.3,20.364a2.76,2.76,0,0,1,0,4.062,4.089,4.089,0,0,0-1.129,4.212ZM40.362,6.8a.654.654,0,0,0,.464-.192l5.487-5.487a.656.656,0,1,0-.928-.928L39.9,5.681a.656.656,0,0,0,.464,1.12Zm6.12,2.385a.656.656,0,0,0-.806-.46l-2.744.749a.656.656,0,1,0,.345,1.266l2.744-.749A.656.656,0,0,0,46.482,9.186ZM36.168,4.034a.655.655,0,0,0,.806-.46L37.722.83A.656.656,0,1,0,36.457.485l-.749,2.744a.656.656,0,0,0,.46.806ZM7.763,6.609a.656.656,0,0,0,.928-.928L3.2.193a.656.656,0,1,0-.928.928ZM5.656,9.474,2.912,8.726a.656.656,0,1,0-.345,1.266l2.744.749a.656.656,0,1,0,.345-1.266Zm5.959-5.9a.656.656,0,0,0,1.266-.345L12.133.485A.656.656,0,0,0,10.867.83ZM40.826,38.18a.656.656,0,0,0-.928.928L45.386,44.6a.656.656,0,0,0,.928-.928Zm5.2-3.383-2.744-.749a.656.656,0,1,0-.345,1.266l2.744.749a.656.656,0,1,0,.345-1.266Zm-9.048,6.418a.656.656,0,0,0-1.266.345l.749,2.744a.656.656,0,0,0,1.266-.345ZM7.763,38.18,2.276,43.668A.656.656,0,1,0,3.2,44.6l5.487-5.487a.656.656,0,1,0-.928-.928ZM5.311,34.049,2.567,34.8a.656.656,0,1,0,.345,1.266l2.744-.749a.656.656,0,1,0-.345-1.266Zm7.11,6.706a.656.656,0,0,0-.806.46l-.749,2.744a.656.656,0,1,0,1.266.345l.749-2.744a.656.656,0,0,0-.46-.806Z" transform="translate(0 0)" fill="#fff"/><path d="M157.315,179.958a.656.656,0,0,0,.928.928l5.383-5.383a2.032,2.032,0,0,0,0-2.874l-1.692-1.692a2.035,2.035,0,0,0-2.874,0l-6.67,6.67-2.334-2.334a2.032,2.032,0,0,0-2.874,0l-1.827,1.827a2.032,2.032,0,0,0,0,2.874l4.68,4.68a3.143,3.143,0,0,0,4.44,0l1.613-1.613a.656.656,0,0,0-.928-.928l-1.613,1.613a1.83,1.83,0,0,1-2.584,0l-4.68-4.68a.72.72,0,0,1,0-1.019l1.827-1.827a.72.72,0,0,1,1.019,0l2.8,2.8a.656.656,0,0,0,.928,0l7.134-7.134a.721.721,0,0,1,1.019,0l1.692,1.692a.72.72,0,0,1,0,1.019Z" transform="translate(-130.196 -155.441)"/></g></svg>